<mxfile host="app.diagrams.net" modified="2023-05-01T15:12:50.436Z" agent="Mozilla/5.0 (X11; Linux x86_64) AppleWebKit/537.36 (KHTML, like Gecko) Chrome/112.0.0.0 Safari/537.36" etag="U3bHwf8fuvaJ-JrVbkgR" version="21.2.3" type="device" pages="2">
  <diagram name="ClientAgnosticTCPSequenceDiagram" id="13e1069c-82ec-6db2-03f1-153e76fe0fe0">
    <mxGraphModel dx="1963" dy="1070" grid="1" gridSize="10" guides="1" tooltips="1" connect="1" arrows="1" fold="1" page="1" pageScale="1" pageWidth="1100" pageHeight="850" background="none" math="0" shadow="0">
      <root>
        <mxCell id="0" />
        <mxCell id="1" parent="0" />
        <mxCell id="7baba1c4bc27f4b0-2" value="ClientSkeleton" style="shape=umlLifeline;perimeter=lifelinePerimeter;whiteSpace=wrap;html=1;container=1;collapsible=0;recursiveResize=0;outlineConnect=0;rounded=1;shadow=0;comic=0;labelBackgroundColor=none;strokeWidth=1;fontFamily=Verdana;fontSize=12;align=center;" parent="1" vertex="1">
          <mxGeometry x="640" y="80" width="100" height="580" as="geometry" />
        </mxCell>
        <mxCell id="7baba1c4bc27f4b0-10" value="" style="html=1;points=[];perimeter=orthogonalPerimeter;rounded=0;shadow=0;comic=0;labelBackgroundColor=none;strokeWidth=1;fontFamily=Verdana;fontSize=12;align=center;" parent="7baba1c4bc27f4b0-2" vertex="1">
          <mxGeometry x="45" y="100" width="10" height="400" as="geometry" />
        </mxCell>
        <mxCell id="1Mj5_L2qgVu4fqB3LOrV-22" value="Send : Response" style="html=1;verticalAlign=bottom;endArrow=open;dashed=1;endSize=8;edgeStyle=elbowEdgeStyle;elbow=vertical;curved=0;rounded=0;" parent="7baba1c4bc27f4b0-2" target="7baba1c4bc27f4b0-9" edge="1">
          <mxGeometry relative="1" as="geometry">
            <mxPoint x="45" y="500" as="sourcePoint" />
            <mxPoint x="-35" y="500" as="targetPoint" />
          </mxGeometry>
        </mxCell>
        <mxCell id="7baba1c4bc27f4b0-3" value="LocalServer" style="shape=umlLifeline;perimeter=lifelinePerimeter;whiteSpace=wrap;html=1;container=1;collapsible=0;recursiveResize=0;outlineConnect=0;rounded=1;shadow=0;comic=0;labelBackgroundColor=none;strokeWidth=1;fontFamily=Verdana;fontSize=12;align=center;" parent="1" vertex="1">
          <mxGeometry x="880" y="80" width="110" height="580" as="geometry" />
        </mxCell>
        <mxCell id="7baba1c4bc27f4b0-13" value="" style="html=1;points=[];perimeter=orthogonalPerimeter;rounded=0;shadow=0;comic=0;labelBackgroundColor=none;strokeWidth=1;fontFamily=Verdana;fontSize=12;align=center;" parent="7baba1c4bc27f4b0-3" vertex="1">
          <mxGeometry x="50" y="120" width="10" height="360" as="geometry" />
        </mxCell>
        <mxCell id="1Mj5_L2qgVu4fqB3LOrV-5" value="ViewMessage&amp;lt;?&amp;gt; is of type:&lt;br&gt;RequestLobby,&lt;br&gt;JoinLobbyMessage,&lt;br&gt;CreateLobbyMessage&lt;br&gt;" style="html=1;whiteSpace=wrap;dashed=1;" parent="7baba1c4bc27f4b0-3" vertex="1">
          <mxGeometry x="-10" y="130" width="130" height="70" as="geometry" />
        </mxCell>
        <mxCell id="7baba1c4bc27f4b0-8" value="ClientMain" style="shape=umlLifeline;perimeter=lifelinePerimeter;whiteSpace=wrap;html=1;container=1;collapsible=0;recursiveResize=0;outlineConnect=0;rounded=1;shadow=0;comic=0;labelBackgroundColor=none;strokeWidth=1;fontFamily=Verdana;fontSize=12;align=center;" parent="1" vertex="1">
          <mxGeometry x="100" y="80" width="100" height="580" as="geometry" />
        </mxCell>
        <mxCell id="7baba1c4bc27f4b0-9" value="" style="html=1;points=[];perimeter=orthogonalPerimeter;rounded=0;shadow=0;comic=0;labelBackgroundColor=none;strokeWidth=1;fontFamily=Verdana;fontSize=12;align=center;" parent="7baba1c4bc27f4b0-8" vertex="1">
          <mxGeometry x="45" y="100" width="10" height="440" as="geometry" />
        </mxCell>
        <mxCell id="7baba1c4bc27f4b0-11" value="NotifyChange :&lt;br&gt;ViewMessage&amp;lt;?&amp;gt;" style="html=1;verticalAlign=bottom;endArrow=block;entryX=0;entryY=0;labelBackgroundColor=none;fontFamily=Verdana;fontSize=12;edgeStyle=elbowEdgeStyle;elbow=vertical;" parent="1" source="7baba1c4bc27f4b0-9" target="7baba1c4bc27f4b0-10" edge="1">
          <mxGeometry relative="1" as="geometry">
            <mxPoint x="220" y="190" as="sourcePoint" />
          </mxGeometry>
        </mxCell>
        <mxCell id="7baba1c4bc27f4b0-14" value="Update :&lt;br&gt;ViewMessage&amp;lt;?&amp;gt;" style="html=1;verticalAlign=bottom;endArrow=block;entryX=0;entryY=0;labelBackgroundColor=none;fontFamily=Verdana;fontSize=12;edgeStyle=elbowEdgeStyle;elbow=vertical;" parent="1" source="7baba1c4bc27f4b0-10" target="7baba1c4bc27f4b0-13" edge="1">
          <mxGeometry x="-0.3485" y="10" relative="1" as="geometry">
            <mxPoint x="420" y="200" as="sourcePoint" />
            <mxPoint as="offset" />
          </mxGeometry>
        </mxCell>
        <mxCell id="1Mj5_L2qgVu4fqB3LOrV-1" value="GameController" style="shape=umlLifeline;perimeter=lifelinePerimeter;whiteSpace=wrap;html=1;container=1;collapsible=0;recursiveResize=0;outlineConnect=0;rounded=1;shadow=0;comic=0;labelBackgroundColor=none;strokeWidth=1;fontFamily=Verdana;fontSize=12;align=center;" parent="1" vertex="1">
          <mxGeometry x="1300" y="80" width="100" height="580" as="geometry" />
        </mxCell>
        <mxCell id="1Mj5_L2qgVu4fqB3LOrV-2" value="" style="html=1;points=[];perimeter=orthogonalPerimeter;rounded=0;shadow=0;comic=0;labelBackgroundColor=none;strokeWidth=1;fontFamily=Verdana;fontSize=12;align=center;" parent="1Mj5_L2qgVu4fqB3LOrV-1" vertex="1">
          <mxGeometry x="45" y="300" width="10" height="150" as="geometry" />
        </mxCell>
        <mxCell id="1Mj5_L2qgVu4fqB3LOrV-20" value="return : Response" style="html=1;verticalAlign=bottom;endArrow=open;dashed=1;endSize=8;edgeStyle=elbowEdgeStyle;elbow=vertical;curved=0;rounded=0;" parent="1Mj5_L2qgVu4fqB3LOrV-1" edge="1">
          <mxGeometry relative="1" as="geometry">
            <mxPoint x="45" y="450" as="sourcePoint" />
            <mxPoint x="-360" y="450" as="targetPoint" />
          </mxGeometry>
        </mxCell>
        <mxCell id="1Mj5_L2qgVu4fqB3LOrV-3" value="OnMessage :&lt;br&gt;ViewMessage&amp;lt;?&amp;gt;" style="html=1;verticalAlign=bottom;endArrow=block;labelBackgroundColor=none;fontFamily=Verdana;fontSize=12;elbow=vertical;rounded=0;" parent="1" target="1Mj5_L2qgVu4fqB3LOrV-2" edge="1">
          <mxGeometry x="-0.6044" y="10" relative="1" as="geometry">
            <mxPoint x="940" y="380" as="sourcePoint" />
            <mxPoint x="1130" y="230" as="targetPoint" />
            <mxPoint as="offset" />
            <Array as="points">
              <mxPoint x="1000" y="380" />
              <mxPoint x="1030" y="380" />
              <mxPoint x="1050" y="380" />
            </Array>
          </mxGeometry>
        </mxCell>
        <mxCell id="1Mj5_L2qgVu4fqB3LOrV-4" value="Alt" style="shape=umlFrame;whiteSpace=wrap;html=1;pointerEvents=0;" parent="1" vertex="1">
          <mxGeometry x="840" y="160" width="280" height="410" as="geometry" />
        </mxCell>
        <mxCell id="1Mj5_L2qgVu4fqB3LOrV-7" value="return :&lt;br&gt;Response" style="html=1;verticalAlign=bottom;endArrow=open;dashed=1;endSize=8;edgeStyle=elbowEdgeStyle;elbow=vertical;curved=0;rounded=0;entryX=1.183;entryY=0.376;entryDx=0;entryDy=0;entryPerimeter=0;" parent="1" edge="1" target="7baba1c4bc27f4b0-10">
          <mxGeometry x="0.5227" relative="1" as="geometry">
            <mxPoint x="929" y="330" as="sourcePoint" />
            <mxPoint x="695" y="300" as="targetPoint" />
            <Array as="points">
              <mxPoint x="790" y="330" />
              <mxPoint x="870" y="300" />
            </Array>
            <mxPoint as="offset" />
          </mxGeometry>
        </mxCell>
        <mxCell id="1Mj5_L2qgVu4fqB3LOrV-9" value="GameModel" style="shape=umlLifeline;perimeter=lifelinePerimeter;whiteSpace=wrap;html=1;container=1;collapsible=0;recursiveResize=0;outlineConnect=0;rounded=1;shadow=0;comic=0;labelBackgroundColor=none;strokeWidth=1;fontFamily=Verdana;fontSize=12;align=center;size=40;" parent="1" vertex="1">
          <mxGeometry x="1480" y="75" width="100" height="580" as="geometry" />
        </mxCell>
        <mxCell id="1Mj5_L2qgVu4fqB3LOrV-10" value="" style="html=1;points=[];perimeter=orthogonalPerimeter;rounded=0;shadow=0;comic=0;labelBackgroundColor=none;strokeWidth=1;fontFamily=Verdana;fontSize=12;align=center;" parent="1Mj5_L2qgVu4fqB3LOrV-9" vertex="1">
          <mxGeometry x="45" y="320" width="10" height="100" as="geometry" />
        </mxCell>
        <mxCell id="1Mj5_L2qgVu4fqB3LOrV-19" value="return : Response" style="html=1;verticalAlign=bottom;endArrow=open;dashed=1;endSize=8;edgeStyle=elbowEdgeStyle;elbow=vertical;curved=0;rounded=0;" parent="1Mj5_L2qgVu4fqB3LOrV-9" target="1Mj5_L2qgVu4fqB3LOrV-2" edge="1">
          <mxGeometry relative="1" as="geometry">
            <mxPoint x="45" y="420" as="sourcePoint" />
            <mxPoint x="-110" y="410" as="targetPoint" />
          </mxGeometry>
        </mxCell>
        <mxCell id="1Mj5_L2qgVu4fqB3LOrV-14" value="NotifyChange:&lt;br&gt;ModelMessage&amp;lt;?&amp;gt;" style="html=1;verticalAlign=bottom;endArrow=block;edgeStyle=elbowEdgeStyle;elbow=vertical;curved=0;rounded=0;" parent="1" source="1Mj5_L2qgVu4fqB3LOrV-10" edge="1">
          <mxGeometry x="-0.8624" y="-3" width="80" relative="1" as="geometry">
            <mxPoint x="700" y="390" as="sourcePoint" />
            <mxPoint x="154" y="450" as="targetPoint" />
            <Array as="points">
              <mxPoint x="1140" y="450" />
              <mxPoint x="1130" y="440" />
              <mxPoint x="1130" y="460" />
              <mxPoint x="1090" y="430" />
              <mxPoint x="1080" y="400" />
            </Array>
            <mxPoint y="-1" as="offset" />
          </mxGeometry>
        </mxCell>
        <mxCell id="1Mj5_L2qgVu4fqB3LOrV-16" value="Else&lt;br&gt;" style="html=1;whiteSpace=wrap;dashed=1;" parent="1" vertex="1">
          <mxGeometry x="905" y="340" width="60" height="20" as="geometry" />
        </mxCell>
        <mxCell id="1Mj5_L2qgVu4fqB3LOrV-13" value="[Modifing state methods]" style="html=1;verticalAlign=bottom;endArrow=block;labelBackgroundColor=none;fontFamily=Verdana;fontSize=12;elbow=vertical;rounded=0;entryX=0.033;entryY=-0.001;entryDx=0;entryDy=0;entryPerimeter=0;exitX=1;exitY=0.102;exitDx=0;exitDy=0;exitPerimeter=0;" parent="1" source="1Mj5_L2qgVu4fqB3LOrV-2" target="1Mj5_L2qgVu4fqB3LOrV-10" edge="1">
          <mxGeometry x="0.0018" relative="1" as="geometry">
            <mxPoint x="1410" y="400" as="sourcePoint" />
            <mxPoint x="1595" y="339.58" as="targetPoint" />
            <mxPoint as="offset" />
            <Array as="points">
              <mxPoint x="1480" y="395" />
            </Array>
          </mxGeometry>
        </mxCell>
        <mxCell id="1Mj5_L2qgVu4fqB3LOrV-21" value="return : Response" style="html=1;verticalAlign=bottom;endArrow=open;dashed=1;endSize=8;edgeStyle=elbowEdgeStyle;elbow=vertical;curved=0;rounded=0;exitX=-0.09;exitY=0.997;exitDx=0;exitDy=0;exitPerimeter=0;entryX=1.106;entryY=0.948;entryDx=0;entryDy=0;entryPerimeter=0;" parent="1" source="7baba1c4bc27f4b0-13" target="7baba1c4bc27f4b0-10" edge="1">
          <mxGeometry x="0.2598" relative="1" as="geometry">
            <mxPoint x="920" y="560" as="sourcePoint" />
            <mxPoint x="700" y="560" as="targetPoint" />
            <mxPoint as="offset" />
          </mxGeometry>
        </mxCell>
        <mxCell id="1Mj5_L2qgVu4fqB3LOrV-23" value="Thread :&lt;br&gt;ClientMain" style="shape=umlFrame;whiteSpace=wrap;html=1;pointerEvents=0;width=80;height=50;" parent="1" vertex="1">
          <mxGeometry y="40" width="310" height="640" as="geometry" />
        </mxCell>
        <mxCell id="1Mj5_L2qgVu4fqB3LOrV-24" value="NETWORK" style="shape=umlFrame;whiteSpace=wrap;html=1;pointerEvents=0;width=80;height=50;" parent="1" vertex="1">
          <mxGeometry x="310" y="40" width="170" height="640" as="geometry" />
        </mxCell>
        <mxCell id="1Mj5_L2qgVu4fqB3LOrV-25" value="Thread :&lt;br&gt;AppServer;Receive" style="shape=umlFrame;whiteSpace=wrap;html=1;pointerEvents=0;width=140;height=50;" parent="1" vertex="1">
          <mxGeometry x="480" y="40" width="1290" height="640" as="geometry" />
        </mxCell>
        <mxCell id="5IxiRlLwKeozM7aqE2pk-1" value="LocalServer" style="shape=umlLifeline;perimeter=lifelinePerimeter;whiteSpace=wrap;html=1;container=1;collapsible=0;recursiveResize=0;outlineConnect=0;rounded=1;shadow=0;comic=0;labelBackgroundColor=none;strokeWidth=1;fontFamily=Verdana;fontSize=12;align=center;" vertex="1" parent="1">
          <mxGeometry x="1150" y="80" width="110" height="580" as="geometry" />
        </mxCell>
        <mxCell id="5IxiRlLwKeozM7aqE2pk-2" value="" style="html=1;points=[];perimeter=orthogonalPerimeter;rounded=0;shadow=0;comic=0;labelBackgroundColor=none;strokeWidth=1;fontFamily=Verdana;fontSize=12;align=center;" vertex="1" parent="5IxiRlLwKeozM7aqE2pk-1">
          <mxGeometry x="50" y="120" width="10" height="150" as="geometry" />
        </mxCell>
        <mxCell id="5IxiRlLwKeozM7aqE2pk-4" value="OnMessage :&lt;br&gt;ViewMessage&amp;lt;?&amp;gt;" style="html=1;verticalAlign=bottom;endArrow=block;edgeStyle=elbowEdgeStyle;elbow=vertical;curved=0;rounded=0;" edge="1" parent="1">
          <mxGeometry x="-0.0768" width="80" relative="1" as="geometry">
            <mxPoint x="940" y="300" as="sourcePoint" />
            <mxPoint x="1200" y="300" as="targetPoint" />
            <mxPoint as="offset" />
          </mxGeometry>
        </mxCell>
        <mxCell id="5IxiRlLwKeozM7aqE2pk-5" value="return : Response" style="html=1;verticalAlign=bottom;endArrow=open;dashed=1;endSize=8;edgeStyle=elbowEdgeStyle;elbow=vertical;curved=0;rounded=0;" edge="1" parent="1">
          <mxGeometry relative="1" as="geometry">
            <mxPoint x="1200" y="320" as="sourcePoint" />
            <mxPoint x="940" y="320.1" as="targetPoint" />
          </mxGeometry>
        </mxCell>
      </root>
    </mxGraphModel>
  </diagram>
  <diagram id="-NLqRZDCjcDj3ULBXtWr" name="AppClientImplementation">
    <mxGraphModel dx="3117" dy="1248" grid="1" gridSize="10" guides="1" tooltips="1" connect="1" arrows="1" fold="1" page="1" pageScale="1" pageWidth="827" pageHeight="1169" math="0" shadow="0">
      <root>
        <mxCell id="0" />
        <mxCell id="1" parent="0" />
        <mxCell id="FKV5GOfbpDWfgFGBKV0M-1" value="ClientSkeleton" style="shape=umlLifeline;perimeter=lifelinePerimeter;whiteSpace=wrap;html=1;container=1;collapsible=0;recursiveResize=0;outlineConnect=0;rounded=1;shadow=0;comic=0;labelBackgroundColor=none;strokeWidth=1;fontFamily=Verdana;fontSize=12;align=center;movable=1;resizable=1;rotatable=1;deletable=1;editable=1;locked=0;connectable=1;size=40;" parent="1" vertex="1">
          <mxGeometry x="880" y="280" width="100" height="580" as="geometry" />
        </mxCell>
        <mxCell id="FKV5GOfbpDWfgFGBKV0M-2" value="" style="html=1;points=[];perimeter=orthogonalPerimeter;rounded=0;shadow=0;comic=0;labelBackgroundColor=none;strokeWidth=1;fontFamily=Verdana;fontSize=12;align=center;" parent="FKV5GOfbpDWfgFGBKV0M-1" vertex="1">
          <mxGeometry x="45" y="120" width="10" height="400" as="geometry" />
        </mxCell>
        <mxCell id="FKV5GOfbpDWfgFGBKV0M-3" value="Send : Response" style="html=1;verticalAlign=bottom;endArrow=open;dashed=1;endSize=8;edgeStyle=elbowEdgeStyle;elbow=vertical;curved=0;rounded=0;" parent="FKV5GOfbpDWfgFGBKV0M-1" target="FKV5GOfbpDWfgFGBKV0M-33" edge="1">
          <mxGeometry relative="1" as="geometry">
            <mxPoint x="45" y="500" as="sourcePoint" />
            <mxPoint x="-540" y="540" as="targetPoint" />
            <Array as="points">
              <mxPoint x="-400" y="520" />
              <mxPoint x="-400" y="560" />
              <mxPoint x="-370" y="550" />
              <mxPoint x="-430" y="541" />
              <mxPoint x="-280" y="540" />
            </Array>
          </mxGeometry>
        </mxCell>
        <mxCell id="FKV5GOfbpDWfgFGBKV0M-7" value="AppClient" style="shape=umlLifeline;perimeter=lifelinePerimeter;whiteSpace=wrap;html=1;container=1;collapsible=0;recursiveResize=0;outlineConnect=0;rounded=1;shadow=0;comic=0;labelBackgroundColor=none;strokeWidth=1;fontFamily=Verdana;fontSize=12;align=center;" parent="1" vertex="1">
          <mxGeometry x="-10" y="230" width="100" height="630" as="geometry" />
        </mxCell>
        <mxCell id="FKV5GOfbpDWfgFGBKV0M-8" value="" style="html=1;points=[];perimeter=orthogonalPerimeter;rounded=0;shadow=0;comic=0;labelBackgroundColor=none;strokeWidth=1;fontFamily=Verdana;fontSize=12;align=center;" parent="FKV5GOfbpDWfgFGBKV0M-7" vertex="1">
          <mxGeometry x="45" y="80" width="10" height="530" as="geometry" />
        </mxCell>
        <mxCell id="FKV5GOfbpDWfgFGBKV0M-9" value="NotifyChange() :&lt;br&gt;ViewMessage&amp;lt;?&amp;gt;" style="html=1;verticalAlign=bottom;endArrow=block;entryX=0;entryY=0;labelBackgroundColor=none;fontFamily=Verdana;fontSize=12;edgeStyle=elbowEdgeStyle;elbow=vertical;exitX=1;exitY=0.15;exitDx=0;exitDy=0;exitPerimeter=0;rounded=0;" parent="1" source="FKV5GOfbpDWfgFGBKV0M-33" target="FKV5GOfbpDWfgFGBKV0M-2" edge="1">
          <mxGeometry x="0.1362" relative="1" as="geometry">
            <mxPoint x="460" y="390" as="sourcePoint" />
            <Array as="points">
              <mxPoint x="640" y="400" />
            </Array>
            <mxPoint as="offset" />
          </mxGeometry>
        </mxCell>
        <mxCell id="FKV5GOfbpDWfgFGBKV0M-10" value="Update() :&lt;br&gt;ViewMessage&amp;lt;?&amp;gt;" style="html=1;verticalAlign=bottom;endArrow=block;entryX=-0.212;entryY=0.04;labelBackgroundColor=none;fontFamily=Verdana;fontSize=12;edgeStyle=elbowEdgeStyle;elbow=vertical;entryDx=0;entryDy=0;entryPerimeter=0;" parent="1" source="FKV5GOfbpDWfgFGBKV0M-2" target="aWTG2nPl9HUu7PHv3Y5E-2" edge="1">
          <mxGeometry x="-0.3485" y="10" relative="1" as="geometry">
            <mxPoint x="660" y="400" as="sourcePoint" />
            <mxPoint as="offset" />
            <mxPoint x="1170" y="420" as="targetPoint" />
          </mxGeometry>
        </mxCell>
        <mxCell id="FKV5GOfbpDWfgFGBKV0M-16" value="return :&lt;br&gt;Response" style="html=1;verticalAlign=bottom;endArrow=open;dashed=1;endSize=8;edgeStyle=elbowEdgeStyle;elbow=vertical;curved=0;rounded=0;exitX=0.017;exitY=0.344;exitDx=0;exitDy=0;exitPerimeter=0;" parent="1" source="aWTG2nPl9HUu7PHv3Y5E-2" edge="1">
          <mxGeometry x="0.5227" relative="1" as="geometry">
            <mxPoint x="1170" y="530" as="sourcePoint" />
            <mxPoint x="935" y="540" as="targetPoint" />
            <Array as="points">
              <mxPoint x="1050" y="540" />
              <mxPoint x="1110" y="530" />
            </Array>
            <mxPoint as="offset" />
          </mxGeometry>
        </mxCell>
        <mxCell id="FKV5GOfbpDWfgFGBKV0M-20" value="NotifyChange():&lt;br&gt;ModelMessage&amp;lt;?&amp;gt;" style="html=1;verticalAlign=bottom;endArrow=block;elbow=vertical;rounded=0;entryX=1.1;entryY=0.665;entryDx=0;entryDy=0;entryPerimeter=0;" parent="1" source="aWTG2nPl9HUu7PHv3Y5E-9" target="FKV5GOfbpDWfgFGBKV0M-33" edge="1">
          <mxGeometry x="-0.8582" y="-1" width="80" relative="1" as="geometry">
            <mxPoint x="1535" y="679.2499999999998" as="sourcePoint" />
            <mxPoint x="394" y="650" as="targetPoint" />
            <mxPoint as="offset" />
          </mxGeometry>
        </mxCell>
        <mxCell id="FKV5GOfbpDWfgFGBKV0M-23" value="return : Response" style="html=1;verticalAlign=bottom;endArrow=open;dashed=1;endSize=8;edgeStyle=elbowEdgeStyle;elbow=vertical;curved=0;rounded=0;exitX=-0.09;exitY=0.997;exitDx=0;exitDy=0;exitPerimeter=0;" parent="1" edge="1">
          <mxGeometry x="0.2598" relative="1" as="geometry">
            <mxPoint x="1169.0999999999995" y="758.98" as="sourcePoint" />
            <mxPoint x="936" y="760" as="targetPoint" />
            <mxPoint as="offset" />
          </mxGeometry>
        </mxCell>
        <mxCell id="FKV5GOfbpDWfgFGBKV0M-24" value="Thread :&lt;br&gt;AppClient;Main" style="shape=umlFrame;whiteSpace=wrap;html=1;pointerEvents=0;width=110;height=40;" parent="1" vertex="1">
          <mxGeometry x="-100" y="170" width="350" height="710" as="geometry" />
        </mxCell>
        <mxCell id="FKV5GOfbpDWfgFGBKV0M-25" value="NETWORK" style="shape=umlFrame;whiteSpace=wrap;html=1;pointerEvents=0;width=80;height=40;" parent="1" vertex="1">
          <mxGeometry x="570" y="170" width="150" height="710" as="geometry" />
        </mxCell>
        <mxCell id="FKV5GOfbpDWfgFGBKV0M-26" value="Thread :&lt;br&gt;AppServer;Receive" style="shape=umlFrame;whiteSpace=wrap;html=1;pointerEvents=0;width=140;height=40;" parent="1" vertex="1">
          <mxGeometry x="720" y="170" width="1250" height="710" as="geometry" />
        </mxCell>
        <mxCell id="FKV5GOfbpDWfgFGBKV0M-27" value="View" style="shape=umlLifeline;perimeter=lifelinePerimeter;whiteSpace=wrap;html=1;container=1;collapsible=0;recursiveResize=0;outlineConnect=0;rounded=1;shadow=0;comic=0;labelBackgroundColor=none;strokeWidth=1;fontFamily=Verdana;fontSize=12;align=center;" parent="1" vertex="1">
          <mxGeometry x="130" y="230" width="100" height="630" as="geometry" />
        </mxCell>
        <mxCell id="FKV5GOfbpDWfgFGBKV0M-28" value="" style="html=1;points=[];perimeter=orthogonalPerimeter;rounded=0;shadow=0;comic=0;labelBackgroundColor=none;strokeWidth=1;fontFamily=Verdana;fontSize=12;align=center;" parent="FKV5GOfbpDWfgFGBKV0M-27" vertex="1">
          <mxGeometry x="45" y="120" width="10" height="490" as="geometry" />
        </mxCell>
        <mxCell id="FKV5GOfbpDWfgFGBKV0M-38" value="Update : ViewMessage()" style="html=1;verticalAlign=bottom;endArrow=block;edgeStyle=elbowEdgeStyle;elbow=vertical;curved=0;rounded=0;entryX=-0.039;entryY=0.001;entryDx=0;entryDy=0;entryPerimeter=0;" parent="FKV5GOfbpDWfgFGBKV0M-27" target="FKV5GOfbpDWfgFGBKV0M-33" edge="1">
          <mxGeometry x="0.2173" width="80" relative="1" as="geometry">
            <mxPoint x="55" y="150" as="sourcePoint" />
            <mxPoint x="200" y="150" as="targetPoint" />
            <mxPoint as="offset" />
          </mxGeometry>
        </mxCell>
        <mxCell id="FKV5GOfbpDWfgFGBKV0M-30" value="Thread :&lt;br&gt;AppClient;Receive" style="shape=umlFrame;whiteSpace=wrap;html=1;pointerEvents=0;width=130;height=40;" parent="1" vertex="1">
          <mxGeometry x="250" y="170" width="320" height="710" as="geometry" />
        </mxCell>
        <mxCell id="FKV5GOfbpDWfgFGBKV0M-31" value="run()" style="html=1;verticalAlign=bottom;endArrow=block;edgeStyle=elbowEdgeStyle;elbow=vertical;curved=0;rounded=0;entryX=-0.033;entryY=0.004;entryDx=0;entryDy=0;entryPerimeter=0;exitX=0.876;exitY=0.08;exitDx=0;exitDy=0;exitPerimeter=0;" parent="1" source="FKV5GOfbpDWfgFGBKV0M-8" target="FKV5GOfbpDWfgFGBKV0M-28" edge="1">
          <mxGeometry width="80" relative="1" as="geometry">
            <mxPoint x="50" y="352" as="sourcePoint" />
            <mxPoint x="170" y="360" as="targetPoint" />
            <Array as="points">
              <mxPoint x="110" y="352" />
            </Array>
          </mxGeometry>
        </mxCell>
        <mxCell id="FKV5GOfbpDWfgFGBKV0M-32" value="ServerStub" style="shape=umlLifeline;perimeter=lifelinePerimeter;whiteSpace=wrap;html=1;container=1;collapsible=0;recursiveResize=0;outlineConnect=0;rounded=1;shadow=0;comic=0;labelBackgroundColor=none;strokeWidth=1;fontFamily=Verdana;fontSize=12;align=center;" parent="1" vertex="1">
          <mxGeometry x="280" y="230" width="100" height="630" as="geometry" />
        </mxCell>
        <mxCell id="FKV5GOfbpDWfgFGBKV0M-33" value="" style="html=1;points=[];perimeter=orthogonalPerimeter;rounded=0;shadow=0;comic=0;labelBackgroundColor=none;strokeWidth=1;fontFamily=Verdana;fontSize=12;align=center;" parent="FKV5GOfbpDWfgFGBKV0M-32" vertex="1">
          <mxGeometry x="45" y="150" width="10" height="450" as="geometry" />
        </mxCell>
        <mxCell id="FKV5GOfbpDWfgFGBKV0M-41" value="OnMessage()" style="html=1;verticalAlign=bottom;endArrow=block;elbow=vertical;rounded=0;exitX=1.12;exitY=0.69;exitDx=0;exitDy=0;exitPerimeter=0;" parent="FKV5GOfbpDWfgFGBKV0M-32" source="FKV5GOfbpDWfgFGBKV0M-33" edge="1">
          <mxGeometry x="0.0507" y="40" width="80" relative="1" as="geometry">
            <mxPoint x="60" y="460" as="sourcePoint" />
            <mxPoint x="55" y="490" as="targetPoint" />
            <Array as="points">
              <mxPoint x="140" y="460" />
              <mxPoint x="140" y="480" />
              <mxPoint x="140" y="490" />
              <mxPoint x="100" y="490" />
            </Array>
            <mxPoint as="offset" />
          </mxGeometry>
        </mxCell>
        <mxCell id="FKV5GOfbpDWfgFGBKV0M-34" value="Update() :&lt;br&gt;ModelMessage&amp;lt;?&amp;gt;&lt;br&gt;" style="html=1;verticalAlign=bottom;endArrow=block;edgeStyle=elbowEdgeStyle;elbow=vertical;curved=0;rounded=0;" parent="1" source="FKV5GOfbpDWfgFGBKV0M-33" edge="1">
          <mxGeometry x="-0.0734" y="-10" width="80" relative="1" as="geometry">
            <mxPoint x="210" y="720" as="sourcePoint" />
            <mxPoint x="184" y="730" as="targetPoint" />
            <Array as="points">
              <mxPoint x="270" y="730" />
              <mxPoint x="280" y="720" />
              <mxPoint x="250" y="690" />
              <mxPoint x="190" y="720" />
            </Array>
            <mxPoint as="offset" />
          </mxGeometry>
        </mxCell>
        <mxCell id="FKV5GOfbpDWfgFGBKV0M-42" value="OnMessage()" style="html=1;verticalAlign=bottom;endArrow=block;elbow=vertical;rounded=0;exitX=0.96;exitY=0.846;exitDx=0;exitDy=0;exitPerimeter=0;" parent="1" source="FKV5GOfbpDWfgFGBKV0M-33" edge="1">
          <mxGeometry x="0.0507" y="40" width="80" relative="1" as="geometry">
            <mxPoint x="340" y="760" as="sourcePoint" />
            <mxPoint x="335" y="790" as="targetPoint" />
            <Array as="points">
              <mxPoint x="414" y="760" />
              <mxPoint x="414" y="780" />
              <mxPoint x="414" y="790" />
              <mxPoint x="390" y="790" />
              <mxPoint x="374" y="790" />
            </Array>
            <mxPoint as="offset" />
          </mxGeometry>
        </mxCell>
        <mxCell id="FKV5GOfbpDWfgFGBKV0M-37" value="return : Response" style="html=1;verticalAlign=bottom;endArrow=open;dashed=1;endSize=8;edgeStyle=elbowEdgeStyle;elbow=vertical;curved=0;rounded=0;entryX=0.92;entryY=0.939;entryDx=0;entryDy=0;entryPerimeter=0;" parent="1" target="FKV5GOfbpDWfgFGBKV0M-28" edge="1">
          <mxGeometry x="-0.006" relative="1" as="geometry">
            <mxPoint x="325" y="800" as="sourcePoint" />
            <mxPoint x="190" y="810" as="targetPoint" />
            <Array as="points">
              <mxPoint x="250" y="810" />
            </Array>
            <mxPoint as="offset" />
          </mxGeometry>
        </mxCell>
        <mxCell id="aWTG2nPl9HUu7PHv3Y5E-1" value="LocalServer" style="shape=umlLifeline;perimeter=lifelinePerimeter;whiteSpace=wrap;html=1;container=1;collapsible=0;recursiveResize=0;outlineConnect=0;rounded=1;shadow=0;comic=0;labelBackgroundColor=none;strokeWidth=1;fontFamily=Verdana;fontSize=12;align=center;" vertex="1" parent="1">
          <mxGeometry x="1140" y="285" width="110" height="580" as="geometry" />
        </mxCell>
        <mxCell id="aWTG2nPl9HUu7PHv3Y5E-2" value="" style="html=1;points=[];perimeter=orthogonalPerimeter;rounded=0;shadow=0;comic=0;labelBackgroundColor=none;strokeWidth=1;fontFamily=Verdana;fontSize=12;align=center;" vertex="1" parent="aWTG2nPl9HUu7PHv3Y5E-1">
          <mxGeometry x="50" y="120" width="10" height="360" as="geometry" />
        </mxCell>
        <mxCell id="aWTG2nPl9HUu7PHv3Y5E-4" value="GameController" style="shape=umlLifeline;perimeter=lifelinePerimeter;whiteSpace=wrap;html=1;container=1;collapsible=0;recursiveResize=0;outlineConnect=0;rounded=1;shadow=0;comic=0;labelBackgroundColor=none;strokeWidth=1;fontFamily=Verdana;fontSize=12;align=center;" vertex="1" parent="1">
          <mxGeometry x="1560" y="285" width="100" height="580" as="geometry" />
        </mxCell>
        <mxCell id="aWTG2nPl9HUu7PHv3Y5E-5" value="" style="html=1;points=[];perimeter=orthogonalPerimeter;rounded=0;shadow=0;comic=0;labelBackgroundColor=none;strokeWidth=1;fontFamily=Verdana;fontSize=12;align=center;" vertex="1" parent="aWTG2nPl9HUu7PHv3Y5E-4">
          <mxGeometry x="45" y="300" width="10" height="150" as="geometry" />
        </mxCell>
        <mxCell id="aWTG2nPl9HUu7PHv3Y5E-6" value="return : Response" style="html=1;verticalAlign=bottom;endArrow=open;dashed=1;endSize=8;edgeStyle=elbowEdgeStyle;elbow=vertical;curved=0;rounded=0;" edge="1" parent="aWTG2nPl9HUu7PHv3Y5E-4">
          <mxGeometry relative="1" as="geometry">
            <mxPoint x="45" y="450" as="sourcePoint" />
            <mxPoint x="-360" y="450" as="targetPoint" />
          </mxGeometry>
        </mxCell>
        <mxCell id="aWTG2nPl9HUu7PHv3Y5E-7" value="OnMessage :&lt;br&gt;ViewMessage&amp;lt;?&amp;gt;" style="html=1;verticalAlign=bottom;endArrow=block;labelBackgroundColor=none;fontFamily=Verdana;fontSize=12;elbow=vertical;rounded=0;" edge="1" parent="1" target="aWTG2nPl9HUu7PHv3Y5E-5">
          <mxGeometry x="-0.5062" relative="1" as="geometry">
            <mxPoint x="1200" y="585" as="sourcePoint" />
            <mxPoint x="1390" y="435" as="targetPoint" />
            <mxPoint as="offset" />
            <Array as="points">
              <mxPoint x="1260" y="585" />
              <mxPoint x="1290" y="585" />
              <mxPoint x="1310" y="585" />
            </Array>
          </mxGeometry>
        </mxCell>
        <mxCell id="aWTG2nPl9HUu7PHv3Y5E-8" value="Alt" style="shape=umlFrame;whiteSpace=wrap;html=1;pointerEvents=0;" vertex="1" parent="1">
          <mxGeometry x="1100" y="365" width="280" height="410" as="geometry" />
        </mxCell>
        <mxCell id="aWTG2nPl9HUu7PHv3Y5E-9" value="GameModel" style="shape=umlLifeline;perimeter=lifelinePerimeter;whiteSpace=wrap;html=1;container=1;collapsible=0;recursiveResize=0;outlineConnect=0;rounded=1;shadow=0;comic=0;labelBackgroundColor=none;strokeWidth=1;fontFamily=Verdana;fontSize=12;align=center;size=40;" vertex="1" parent="1">
          <mxGeometry x="1740" y="280" width="100" height="580" as="geometry" />
        </mxCell>
        <mxCell id="aWTG2nPl9HUu7PHv3Y5E-10" value="" style="html=1;points=[];perimeter=orthogonalPerimeter;rounded=0;shadow=0;comic=0;labelBackgroundColor=none;strokeWidth=1;fontFamily=Verdana;fontSize=12;align=center;" vertex="1" parent="aWTG2nPl9HUu7PHv3Y5E-9">
          <mxGeometry x="45" y="320" width="10" height="100" as="geometry" />
        </mxCell>
        <mxCell id="aWTG2nPl9HUu7PHv3Y5E-11" value="return : Response" style="html=1;verticalAlign=bottom;endArrow=open;dashed=1;endSize=8;edgeStyle=elbowEdgeStyle;elbow=vertical;curved=0;rounded=0;" edge="1" parent="aWTG2nPl9HUu7PHv3Y5E-9" target="aWTG2nPl9HUu7PHv3Y5E-5">
          <mxGeometry relative="1" as="geometry">
            <mxPoint x="45" y="420" as="sourcePoint" />
            <mxPoint x="-110" y="410" as="targetPoint" />
          </mxGeometry>
        </mxCell>
        <mxCell id="aWTG2nPl9HUu7PHv3Y5E-12" value="Else&lt;br&gt;" style="html=1;whiteSpace=wrap;dashed=1;" vertex="1" parent="1">
          <mxGeometry x="1165" y="560" width="60" height="20" as="geometry" />
        </mxCell>
        <mxCell id="aWTG2nPl9HUu7PHv3Y5E-13" value="[Modifing state methods]" style="html=1;verticalAlign=bottom;endArrow=block;labelBackgroundColor=none;fontFamily=Verdana;fontSize=12;elbow=vertical;rounded=0;entryX=0.033;entryY=-0.001;entryDx=0;entryDy=0;entryPerimeter=0;exitX=1;exitY=0.102;exitDx=0;exitDy=0;exitPerimeter=0;" edge="1" parent="1" source="aWTG2nPl9HUu7PHv3Y5E-5" target="aWTG2nPl9HUu7PHv3Y5E-10">
          <mxGeometry x="0.0018" relative="1" as="geometry">
            <mxPoint x="1670" y="605" as="sourcePoint" />
            <mxPoint x="1855" y="544.5799999999999" as="targetPoint" />
            <mxPoint as="offset" />
            <Array as="points">
              <mxPoint x="1740" y="600" />
            </Array>
          </mxGeometry>
        </mxCell>
        <mxCell id="aWTG2nPl9HUu7PHv3Y5E-14" value="LocalServer" style="shape=umlLifeline;perimeter=lifelinePerimeter;whiteSpace=wrap;html=1;container=1;collapsible=0;recursiveResize=0;outlineConnect=0;rounded=1;shadow=0;comic=0;labelBackgroundColor=none;strokeWidth=1;fontFamily=Verdana;fontSize=12;align=center;" vertex="1" parent="1">
          <mxGeometry x="1410" y="285" width="110" height="580" as="geometry" />
        </mxCell>
        <mxCell id="aWTG2nPl9HUu7PHv3Y5E-15" value="" style="html=1;points=[];perimeter=orthogonalPerimeter;rounded=0;shadow=0;comic=0;labelBackgroundColor=none;strokeWidth=1;fontFamily=Verdana;fontSize=12;align=center;" vertex="1" parent="aWTG2nPl9HUu7PHv3Y5E-14">
          <mxGeometry x="50" y="210" width="10" height="60" as="geometry" />
        </mxCell>
        <mxCell id="aWTG2nPl9HUu7PHv3Y5E-16" value="OnMessage :&lt;br&gt;ViewMessage&amp;lt;?&amp;gt;" style="html=1;verticalAlign=bottom;endArrow=block;edgeStyle=elbowEdgeStyle;elbow=vertical;curved=0;rounded=0;" edge="1" parent="1">
          <mxGeometry x="-0.0768" width="80" relative="1" as="geometry">
            <mxPoint x="1200" y="505" as="sourcePoint" />
            <mxPoint x="1460" y="505" as="targetPoint" />
            <mxPoint as="offset" />
          </mxGeometry>
        </mxCell>
        <mxCell id="aWTG2nPl9HUu7PHv3Y5E-17" value="return : Response" style="html=1;verticalAlign=bottom;endArrow=open;dashed=1;endSize=8;edgeStyle=elbowEdgeStyle;elbow=vertical;curved=0;rounded=0;" edge="1" parent="1">
          <mxGeometry relative="1" as="geometry">
            <mxPoint x="1460" y="525" as="sourcePoint" />
            <mxPoint x="1200" y="525.0999999999999" as="targetPoint" />
          </mxGeometry>
        </mxCell>
        <mxCell id="aWTG2nPl9HUu7PHv3Y5E-3" value="ViewMessage&amp;lt;?&amp;gt; is of type:&lt;br&gt;RequestLobby,&lt;br&gt;JoinLobbyMessage,&lt;br&gt;CreateLobbyMessage&lt;br&gt;" style="html=1;whiteSpace=wrap;dashed=1;" vertex="1" parent="1">
          <mxGeometry x="1190" y="380" width="130" height="80" as="geometry" />
        </mxCell>
      </root>
    </mxGraphModel>
  </diagram>
</mxfile>
